<svg xmlns="http://www.w3.org/2000/svg" width="44" height="44" viewBox="0 0 44 44" fill="none">
  <rect width="44" height="44" rx="22" fill="white"/>
  <mask id="mask0_79_241" style="mask-type:alpha" maskUnits="userSpaceOnUse" x="0" y="0" width="44" height="44">
    <rect width="44" height="44" rx="22" fill="white"/>
  </mask>
  <g mask="url(#mask0_79_241)">
    <path d="M44.0004 38.4983C44.0004 41.5367 41.537 44.0005 38.4987 44.0005H5.50245C2.46373 44.0005 0.000305176 41.5367 0.000305176 38.4983V5.50313C0.000305176 2.46425 2.46373 0.000976562 5.50245 0.000976562H38.4987C41.537 0.000976562 44.0004 2.46425 44.0004 5.50313V38.4983Z" fill="white"/>
    <path d="M6.69955 6.27812C8.44248 6.65077 38.244 11.6762 44.0003 12.6464V5.50215C44.0003 2.46373 41.5371 0 38.4986 0H5.50243C4.06283 0 2.75765 0.557023 1.7769 1.46229C2.67459 4.68899 4.03834 5.71028 6.69955 6.27812Z" fill="#FFC82F"/>
    <path d="M9.86218 40.3597L35.9288 34.9858C35.9288 34.9858 43.9702 33.4593 43.9702 25.0195C43.9702 19.3764 43.9883 16.5962 44.0004 15.3649V14.5131L3.14838 7.61621L9.86218 40.3597Z" fill="#4FB84F"/>
    <path d="M7.43461 37.3558C7.34298 36.8318 2.62276 14.2613 0.375389 3.51758C0.136148 4.13413 0 4.80185 0 5.50233V38.4976C0 39.8802 0.513623 41.1393 1.35453 42.1054C2.50028 41.8565 3.5998 41.6232 4.5067 41.4416C7.21577 40.9007 7.57475 38.1595 7.43461 37.3558Z" fill="#4FB84F"/>
    <path d="M3.15521 43.4687C3.86792 43.8061 4.66117 43.9996 5.50235 43.9996H8.79019L8.48229 42.4277L3.15521 43.4687Z" fill="#6EC063"/>
    <path d="M37.1854 36.6017L10.2204 42.0653L10.6075 43.9997H38.4987C41.5371 43.9997 44.0004 41.5368 44.0004 38.4976V31.6914C41.7502 35.7317 37.1854 36.6017 37.1854 36.6017Z" fill="#6EC063"/>
    <path fill-rule="evenodd" clip-rule="evenodd" d="M19.3383 39.2363V37.3365C19.3407 28.5863 18.7278 24.1684 14.5441 23.7797H11.431L10.9788 22.3681C10.0744 19.0743 10.0824 17.6703 10.093 16.0435L10.0942 15.5097C10.0942 8.97663 15.4224 3.66211 21.9715 3.66211C28.4656 3.66211 33.7585 8.88875 33.846 15.3467C33.9425 16.1202 34.0858 18.5285 32.9533 22.4023L32.4847 23.7797H29.3953C25.299 24.272 24.6192 28.7538 24.6192 37.5975V38.3935L19.3383 39.2363Z" fill="white"/>
    <mask id="mask1_79_241" style="mask-type:luminance" maskUnits="userSpaceOnUse" x="11" y="5" width="22" height="34">
      <path d="M11.9716 15.4522H11.9711C11.9711 17.5698 12.3494 20.1744 12.8819 21.9985H14.4388C21.4293 22.5575 21.1868 30.233 21.1863 38.0475C21.1863 38.0246 22.2365 37.9503 22.7771 37.8672C22.7791 30.0812 22.8077 22.6924 29.5402 21.9985H31.1284C31.6615 20.1744 32.0477 17.5698 32.0477 15.4522H32.0465C32.0465 9.97133 27.5038 5.45703 22.0056 5.45703C16.5083 5.45703 11.9716 9.97133 11.9716 15.4522Z" fill="white"/>
    </mask>
    <g mask="url(#mask1_79_241)">
      <path d="M32.0476 5.45703H11.9711V38.0475H32.0476V5.45703Z" fill="url(#paint0_linear_79_241)"/>
    </g>
  </g>
  <defs>
    <linearGradient id="paint0_linear_79_241" x1="22.0094" y1="38.0474" x2="22.0094" y2="5.45694" gradientUnits="userSpaceOnUse">
      <stop stop-color="#0064B0"/>
      <stop offset="1" stop-color="#00BEE4"/>
    </linearGradient>
  </defs>
</svg>