<svg xmlns="http://www.w3.org/2000/svg" width="244" height="145" viewBox="0 0 244 145" fill="none">
  <path d="M37.85 60.22C37.72 60.09 37.65 59.92 37.65 59.73C37.65 59.54 37.72 59.37 37.85 59.25C37.98 59.13 38.15 59.05 38.33 59.05H147.1C147.28 59.05 147.46 59.12 147.59 59.25C147.72 59.38 147.79 59.55 147.79 59.73C147.79 59.91 147.72 60.09 147.59 60.21C147.46 60.34 147.28 60.41 147.1 60.41H38.33C38.15 60.41 37.97 60.34 37.85 60.21V60.22ZM92.72 8.85H38.34C38.16 8.85 37.98 8.92001 37.86 9.05C37.73 9.18 37.66 9.35 37.66 9.53C37.66 9.71 37.73 9.89 37.86 10.01C37.99 10.14 38.16 10.21 38.34 10.21H92.72C92.9 10.21 93.08 10.14 93.2 10.01C93.32 9.88 93.4 9.71 93.4 9.53C93.4 9.35 93.33 9.17001 93.2 9.05C93.07 8.92001 92.9 8.85 92.72 8.85ZM222.69 52.35H214.71V97.67C214.71 97.81 214.67 97.94 214.59 98.06C214.51 98.18 214.4 98.26 214.27 98.31C214.14 98.36 214 98.37 213.86 98.34C213.72 98.31 213.6 98.24 213.51 98.14L185.42 67.25V76.77C185.42 88.52 175.86 98.07 164.1 98.07L93.01 98.36L51.39 144.15C51.3 144.26 51.18 144.33 51.04 144.37C50.91 144.4 50.77 144.39 50.64 144.34C50.51 144.29 50.4 144.2 50.32 144.09C50.24 143.98 50.2 143.84 50.2 143.7V98.37H21.31C9.56 98.37 0 88.81 0 77.07V-11.37C0 -23.12 9.56 -32.68 21.31 -32.68L58.56 -32.76V-57.69C58.57 -69.44 68.13 -79 79.87 -79L222.7 -78.71C228.39 -78.71 233.74 -76.48 237.76 -72.46C241.78 -68.44 244 -63.09 244.01 -57.4V31.04C244.01 42.79 234.45 52.34 222.7 52.34L222.69 52.35ZM184.07 -11.68C184.07 -17 181.99 -22.01 178.22 -25.77C174.46 -29.53 169.45 -31.61 164.12 -31.62L21.31 -31.32C15.99 -31.32 10.98 -29.24 7.21 -25.48C3.44 -21.72 1.37 -16.71 1.36 -11.38V77.06C1.36 82.38 3.44 87.39 7.21 91.15C10.98 94.91 15.98 96.99 21.3 96.99H50.88C51.06 96.99 51.23 97.06 51.36 97.19C51.49 97.32 51.56 97.49 51.56 97.67V141.92L92.2 97.21C92.26 97.14 92.34 97.08 92.43 97.04C92.52 97 92.61 96.98 92.71 96.98L164.11 96.69C169.43 96.69 174.44 94.62 178.21 90.85C181.98 87.09 184.06 82.08 184.07 76.75V-11.7V-11.68ZM222.7 50.98C228.02 50.98 233.03 48.9 236.79 45.14C240.55 41.38 242.63 36.37 242.64 31.05V-57.41C242.64 -62.73 240.56 -67.74 236.8 -71.5C233.04 -75.26 228.03 -77.34 222.7 -77.35L79.87 -77.64C74.55 -77.64 69.55 -75.55 65.78 -71.79C62.02 -68.03 59.94 -63.02 59.94 -57.7V-32.77L164.13 -32.98C175.88 -32.98 185.44 -23.42 185.44 -11.67V65.21L213.36 95.92V51.67C213.36 51.49 213.43 51.31 213.56 51.19C213.69 51.06 213.86 50.99 214.04 50.99H222.7V50.98ZM38.33 35.32H147.1C147.28 35.32 147.46 35.25 147.59 35.12C147.72 34.99 147.79 34.82 147.79 34.64C147.79 34.46 147.72 34.28 147.59 34.16C147.46 34.04 147.29 33.96 147.11 33.96H38.33C38.15 33.96 37.97 34.03 37.85 34.16C37.72 34.29 37.65 34.46 37.65 34.64C37.65 34.82 37.72 35 37.85 35.12C37.98 35.25 38.15 35.32 38.33 35.32Z" fill="#4A4A4A"/>
</svg>