<svg xmlns="http://www.w3.org/2000/svg" width="22" height="22" viewBox="0 0 22 22" fill="none">
  <mask id="mask0_118_1716" style="mask-type:luminance" maskUnits="userSpaceOnUse" x="0" y="0" width="22" height="22">
    <path d="M22 0H0V22H22V0Z" fill="white"/>
  </mask>
  <g mask="url(#mask0_118_1716)">
    <path fill-rule="evenodd" clip-rule="evenodd" d="M11.0412 21.9961H10.9535C6.58678 21.9961 4.03297 21.5563 2.25406 19.8127C0.422801 17.9448 0 15.4093 0 11.0596V10.9365C0 6.58678 0.422801 4.03296 2.25406 2.18337C4.04998 0.439817 6.58678 0 10.9548 0H11.0425C15.3923 0 17.9461 0.439817 19.7407 2.18337C21.5719 4.05129 21.9948 6.58678 21.9948 10.9365V11.0596C21.9948 15.4106 21.5719 17.9632 19.7407 19.8127C17.9448 21.5563 15.4093 21.9961 11.0412 21.9961ZM19.2245 10.6741C19.3083 10.678 19.3764 10.7474 19.3764 10.8312H19.3751V11.1819C19.3751 11.267 19.307 11.3364 19.2232 11.339C16.2169 11.4528 14.3885 11.835 13.1072 13.1163C11.8272 14.3964 11.445 16.2222 11.3298 19.2232C11.3259 19.307 11.2565 19.375 11.1728 19.375H10.8207C10.7356 19.375 10.6662 19.307 10.6636 19.2232C10.5485 16.2222 10.1663 14.3964 8.88628 13.1163C7.60628 11.8363 5.77656 11.4528 2.77025 11.339C2.68648 11.3351 2.61843 11.2657 2.61843 11.1819V10.8312C2.61843 10.7461 2.68648 10.6767 2.77025 10.6741C5.77656 10.5602 7.60497 10.1781 8.88628 8.89675C10.1689 7.61413 10.5511 5.7818 10.665 2.77024C10.6689 2.68648 10.7382 2.61842 10.822 2.61842H11.1728C11.2578 2.61842 11.3272 2.68648 11.3298 2.77024C11.4437 5.7831 11.8259 7.61413 13.1085 8.89675C14.3885 10.1768 16.2182 10.5602 19.2245 10.6741Z" fill="white"/>
  </g>
</svg>