<svg xmlns="http://www.w3.org/2000/svg" width="20" height="20" viewBox="0 0 20 20" fill="none">
  <path d="M19.9454 5.88008C19.8985 4.81737 19.7267 4.08683 19.4805 3.45373C19.2265 2.78177 18.8358 2.18016 18.324 1.68002C17.8238 1.17211 17.2182 0.77742 16.554 0.527449C15.9174 0.281306 15.1906 0.109397 14.1279 0.0625906C13.0572 0.0117211 12.7174 0 10.002 0C7.28661 0 6.94674 0.0117211 5.88008 0.0586054C4.8174 0.10549 4.08683 0.277477 3.45393 0.523464C2.78176 0.77742 2.18016 1.16812 1.68002 1.68002C1.17211 2.18012 0.777616 2.78571 0.527449 3.44991C0.281306 4.08683 0.109436 4.81346 0.0625906 5.87609C0.0117602 6.94673 0 7.28661 0 10.002C0 12.7174 0.0117602 13.0573 0.0586054 14.1239C0.10549 15.1866 0.277477 15.9172 0.523659 16.5502C0.777616 17.2222 1.17211 17.8238 1.68002 18.324C2.18016 18.8319 2.78575 19.2266 3.44994 19.4765C4.08679 19.7227 4.81342 19.8946 5.87629 19.9414C6.94275 19.9884 7.28282 20 9.9982 20C12.7136 20 13.0535 19.9884 14.1201 19.9414C15.1828 19.8945 15.9134 19.7227 16.5463 19.4765C17.211 19.2195 17.8147 18.8265 18.3186 18.3225C18.8226 17.8186 19.2157 17.215 19.4727 16.5502C19.7187 15.9134 19.8908 15.1866 19.9376 14.1239C19.9845 13.0573 19.9962 12.7174 19.9962 10.002C19.9962 7.28661 19.9922 6.9467 19.9454 5.88008ZM18.1444 14.0458C18.1013 15.0225 17.9372 15.55 17.8005 15.9016C17.4644 16.7729 16.7729 17.4644 15.9016 17.8005C15.55 17.9372 15.0187 18.1013 14.0458 18.1442C12.9909 18.1912 12.6745 18.2028 10.006 18.2028C7.33744 18.2028 7.0171 18.1912 5.96599 18.1442C4.98924 18.1013 4.46179 17.9372 4.11015 17.8005C3.67659 17.6402 3.28194 17.3863 2.96157 17.0542C2.62947 16.7299 2.37551 16.3392 2.21525 15.9056C2.0785 15.554 1.91444 15.0225 1.87158 14.0498C1.82454 12.9949 1.81298 12.6783 1.81298 10.0098C1.81298 7.34123 1.82454 7.02089 1.87158 5.96998C1.91444 4.99322 2.0785 4.46577 2.21525 4.11414C2.37551 3.68038 2.62947 3.28581 2.96555 2.96536C3.28968 2.63326 3.68038 2.3793 4.11414 2.21923C4.46577 2.08248 4.99721 1.91839 5.96998 1.87537C7.02488 1.82849 7.34142 1.81677 10.0098 1.81677C12.6823 1.81677 12.9986 1.82849 14.0498 1.87537C15.0265 1.91843 15.554 2.08245 15.9056 2.21919C16.3392 2.3793 16.7338 2.63326 17.0542 2.96536C17.3863 3.28968 17.6402 3.68038 17.8005 4.11414C17.9372 4.46577 18.1013 4.99701 18.1443 5.96998C18.1912 7.02488 18.2029 7.34123 18.2029 10.0098C18.2029 12.6783 18.1912 12.9909 18.1444 14.0458Z" fill="white"/>
  <path d="M10.002 4.86348C7.16561 4.86348 4.86429 7.16464 4.86429 10.0012C4.86429 12.8378 7.16561 15.139 10.002 15.139C12.8385 15.139 15.1398 12.8378 15.1398 10.0012C15.1398 7.16464 12.8385 4.86348 10.002 4.86348ZM10.002 13.3339C8.1619 13.3339 6.66926 11.8415 6.66926 10.0012C6.66926 8.16094 8.1619 6.66853 10.002 6.66853C11.8423 6.66853 13.3347 8.16094 13.3347 10.0012C13.3347 11.8415 11.8422 13.3339 10.002 13.3339ZM16.5425 4.66032C16.5425 5.32272 16.0054 5.85978 15.3429 5.85978C14.6805 5.85978 14.1434 5.32272 14.1434 4.66032C14.1434 3.99784 14.6805 3.46094 15.3429 3.46094C16.0054 3.46094 16.5425 3.9978 16.5425 4.66032Z" fill="white"/>
</svg>