<svg xmlns="http://www.w3.org/2000/svg" width="19" height="22" viewBox="0 0 19 22" fill="none">
  <path d="M18 9.18182C18 15.5455 9.5 21 9.5 21C9.5 21 1 15.5455 1 9.18182C1 7.01187 1.89553 4.93079 3.48959 3.3964C5.08365 1.86201 7.24566 1 9.5 1C11.7543 1 13.9163 1.86201 15.5104 3.3964C17.1045 4.93079 18 7.01187 18 9.18182Z" stroke="#4A4A4A" stroke-linecap="round" stroke-linejoin="round"/>
  <path d="M9.50008 11.9096C11.0649 11.9096 12.3334 10.6886 12.3334 9.18235C12.3334 7.67612 11.0649 6.45508 9.50008 6.45508C7.93527 6.45508 6.66675 7.67612 6.66675 9.18235C6.66675 10.6886 7.93527 11.9096 9.50008 11.9096Z" stroke="#4A4A4A" stroke-linecap="round" stroke-linejoin="round"/>
</svg>