<svg width="13" height="15" viewBox="0 0 13 15" fill="none" xmlns="http://www.w3.org/2000/svg">
<g id="Group 810">
<path id="Vector" d="M12 6.5C12 10.7778 6.5 14.4444 6.5 14.4444C6.5 14.4444 1 10.7778 1 6.5C1 5.04131 1.57946 3.64236 2.61091 2.61091C3.64236 1.57946 5.04131 1 6.5 1C7.95869 1 9.35764 1.57946 10.3891 2.61091C11.4205 3.64236 12 5.04131 12 6.5Z" stroke="#83AE50" stroke-linecap="round" stroke-linejoin="round"/>
<path id="Vector_2" d="M6.49999 8.33329C7.51251 8.33329 8.33332 7.51248 8.33332 6.49996C8.33332 5.48744 7.51251 4.66663 6.49999 4.66663C5.48747 4.66663 4.66666 5.48744 4.66666 6.49996C4.66666 7.51248 5.48747 8.33329 6.49999 8.33329Z" stroke="#83AE50" stroke-linecap="round" stroke-linejoin="round"/>
</g>
</svg>
