<svg xmlns="http://www.w3.org/2000/svg" width="12" height="20" viewBox="0 0 12 20" fill="none">
  <path d="M0.176806 10.7331C-0.313664 11.7373 0.243216 12.2173 1.5138 13.0373C2.59395 13.7323 4.08616 13.9865 5.0447 14.0881L1.26736 17.8723C0.168005 18.9699 1.93786 20.7307 3.03641 19.6565L6.01044 16.669C7.149 17.8098 8.24035 18.9032 8.98446 19.6607C10.0838 20.739 11.8529 18.9932 10.7655 17.8765C10.6839 17.7957 6.73534 13.8506 6.97617 14.0923C7.94671 13.9906 9.41652 13.7215 10.4839 13.0415L10.4831 13.0406C11.7537 12.2165 12.3105 11.7373 11.8273 10.7331C11.5352 10.1631 10.7479 9.68643 9.69976 10.5106C9.69976 10.5106 8.28436 11.6398 6.00164 11.6398C3.71811 11.6398 2.30351 10.5106 2.30351 10.5106C1.25616 9.68226 0.465647 10.1631 0.176806 10.7331Z" fill="white"/>
  <path d="M6.00004 10.1184C8.78284 10.1184 11.0552 7.85341 11.0552 5.06505C11.0552 2.26502 8.78284 0 6.00004 0C3.21645 0 0.944122 2.26502 0.944122 5.06505C0.944122 7.85341 3.21645 10.1184 6.00004 10.1184ZM6.00004 2.56586C7.36744 2.56586 8.4828 3.68337 8.4828 5.06505C8.4828 6.43506 7.36744 7.55257 6.00004 7.55257C4.63265 7.55257 3.51729 6.43506 3.51729 5.06505C3.51649 3.68253 4.63185 2.56586 6.00004 2.56586Z" fill="white"/>
</svg>