<svg xmlns="http://www.w3.org/2000/svg" width="22" height="20" viewBox="0 0 22 20" fill="none">
  <path d="M11.5907 12.0931H3.4517V8.70515H11.5907C12.0661 8.70515 12.3967 8.79232 12.5625 8.94454C12.7285 9.09677 12.8312 9.37909 12.8312 9.79152V11.008C12.8312 11.4426 12.7285 11.7249 12.5625 11.8771C12.3967 12.0293 12.0661 12.0944 11.5907 12.0944V12.0931ZM12.149 5.51107H0V19.9996H3.4517V15.2858H9.81282L12.8312 19.9996H16.6964L13.3685 15.2637C14.5954 15.0725 15.1464 14.677 15.6007 14.0251C16.0551 13.3733 16.2829 12.3312 16.2829 10.9404V9.85397C16.2829 9.02911 16.2 8.37728 16.0551 7.87768C15.9103 7.37807 15.6626 6.94352 15.311 6.55321C14.9396 6.1837 14.5261 5.9235 14.0297 5.74915C13.5332 5.59693 12.9129 5.50977 12.149 5.50977V5.51107Z" fill="white"/>
  <path d="M19.3482 5.5102C20.8128 5.5102 22 4.27669 22 2.7551C22 1.2335 20.8128 0 19.3482 0C17.8837 0 16.6964 1.2335 16.6964 2.7551C16.6964 4.27669 17.8837 5.5102 19.3482 5.5102Z" fill="white"/>
</svg>