<svg xmlns="http://www.w3.org/2000/svg" width="52" height="56" viewBox="0 0 52 56" fill="none">
  <path d="M0.000732422 0.000976562H52.0007V30.001C52.0007 44.3604 40.3601 56.001 26.0007 56.001C11.6413 56.001 0.000732422 44.3604 0.000732422 30.001V0.000976562Z" fill="url(#paint0_linear_79_583)"/>
  <path d="M38.0007 43.001V40.001C38.0007 38.4097 37.3686 36.8836 36.2434 35.7583C35.1182 34.6331 33.592 34.001 32.0007 34.001H20.0007C18.4094 34.001 16.8833 34.6331 15.7581 35.7583C14.6329 36.8836 14.0007 38.4097 14.0007 40.001V43.001" stroke="#4A4A4A" stroke-width="2" stroke-linecap="round" stroke-linejoin="round"/>
  <path d="M26.0007 28.001C29.3144 28.001 32.0007 25.3147 32.0007 22.001C32.0007 18.6873 29.3144 16.001 26.0007 16.001C22.687 16.001 20.0007 18.6873 20.0007 22.001C20.0007 25.3147 22.687 28.001 26.0007 28.001Z" stroke="#4A4A4A" stroke-width="2" stroke-linecap="round" stroke-linejoin="round"/>
  <defs>
    <linearGradient id="paint0_linear_79_583" x1="26.0007" y1="0.000976562" x2="26.0007" y2="56.001" gradientUnits="userSpaceOnUse">
      <stop stop-color="#E9FAD5"/>
      <stop offset="1" stop-color="#C6EC99"/>
    </linearGradient>
  </defs>
</svg>