<svg width="36" height="43" viewBox="0 0 36 43" fill="none" xmlns="http://www.w3.org/2000/svg">
<g id="Group">
<path id="Vector" d="M34.9563 11.3764C34.9356 10.2695 34.9158 9.22371 34.9158 8.21214C34.9158 7.41953 34.2818 6.77706 33.4995 6.77706C27.4423 6.77706 22.8307 5.01312 18.9866 1.22606C18.4367 0.684122 17.5616 0.684378 17.0119 1.22606C13.1682 5.01312 8.55731 6.77706 2.50061 6.77706C1.71835 6.77706 1.08419 7.41953 1.08419 8.21214C1.08419 9.22396 1.06463 10.2701 1.04364 11.3772C0.849551 21.6785 0.583679 35.7868 17.5353 41.7405C17.8358 41.8461 18.1625 41.8461 18.463 41.7405C35.416 35.7866 35.1505 21.6779 34.9563 11.3764Z" stroke="#4A4A4A" stroke-miterlimit="10"/>
<path id="Vector_2" d="M20.5133 18.3472V12.9652H15.4875V18.3472H10.1755V23.4395H15.4875V28.8214H20.5133V23.4395H25.8245V18.3472H20.5133Z" stroke="#4A4A4A" stroke-miterlimit="10" stroke-linejoin="round"/>
</g>
</svg>
