<svg xmlns="http://www.w3.org/2000/svg" width="154" height="171" viewBox="0 0 154 171" fill="none">
  <path d="M76.72 35.26C64.6 35.26 53.21 39.98 44.64 48.55C36.07 57.12 31.35 68.51 31.36 80.63C31.36 92.75 36.08 104.14 44.65 112.71C53.22 121.28 64.61 125.99 76.73 125.99C101.74 125.99 122.09 105.64 122.09 80.62C122.06 55.63 101.71 35.27 76.71 35.24L76.72 35.26ZM76.72 124.44C52.57 124.44 32.92 104.78 32.92 80.63C32.92 68.93 37.48 57.93 45.75 49.66C54.02 41.39 65.02 36.83 76.72 36.83C100.87 36.83 120.52 56.49 120.52 80.64C120.49 104.77 100.84 124.42 76.71 124.44H76.72ZM82.09 104.04C82.52 104.04 82.87 103.69 82.87 103.26V86.78H99.35C99.63 86.78 99.82 86.64 99.9 86.55C99.99 86.46 100.13 86.28 100.13 86V75.27C100.13 74.99 99.99 74.8 99.9 74.72C99.81 74.64 99.63 74.49 99.35 74.49H82.87V58.01C82.87 57.58 82.52 57.23 82.09 57.23H71.36C70.93 57.23 70.58 57.58 70.58 58.01V74.49H54.1C53.67 74.49 53.32 74.84 53.32 75.27V86C53.32 86.43 53.67 86.78 54.1 86.78H70.58V103.26C70.58 103.69 70.93 104.04 71.36 104.04H82.09ZM54.87 85.22V76.06H71.35C71.63 76.06 71.82 75.92 71.9 75.83C71.98 75.74 72.13 75.56 72.13 75.28V58.79H81.29V75.28C81.29 75.71 81.64 76.06 82.07 76.06H98.55V85.22H82.07C81.64 85.22 81.29 85.57 81.29 86V102.48H72.13V86C72.13 85.57 71.78 85.22 71.35 85.22H54.87ZM28.5 0C28.07 0 27.72 0.36 27.72 0.8C27.7 15.64 15.62 27.73 0.779999 27.75C0.349999 27.75 0 28.1 0 28.53V63.8C0.01 112.04 30.71 154.89 76.38 170.42C76.53 170.46 76.76 170.46 76.97 170.38C122.76 154.86 153.47 112.01 153.45 63.73V28.53C153.45 28.1 153.09 27.75 152.66 27.75C137.81 27.73 125.72 15.64 125.71 0.78C125.71 0.35 125.36 0 124.93 0H28.51L28.5 0ZM150.15 29.21L151.88 29.37V63.73C151.91 111 121.91 153.16 77.24 168.64L76.62 168.86L76 168.64C31.49 153.09 1.57999 110.96 1.56999 63.81V29.36L3.3 29.2C17.07 27.96 27.96 17.07 29.19 3.3L29.34 1.57H124.11L124.26 3.3C125.49 17.07 136.38 27.97 150.16 29.21H150.15Z" fill="#4A4A4A"/>
</svg>