<svg xmlns="http://www.w3.org/2000/svg" width="141" height="169" viewBox="0 0 141 169" fill="none">
  <path d="M84.59 48.87C85.02 48.87 85.37 49.22 85.37 49.65C85.37 50.08 85.02 50.43 84.59 50.43H67.4C66.97 50.43 66.62 50.08 66.62 49.65C66.62 49.22 66.97 48.87 67.4 48.87H84.59ZM122.3 19.46C122.73 19.46 123.08 19.11 123.08 18.68C123.08 18.25 122.73 17.9 122.3 17.9H67.4C66.97 17.9 66.62 18.25 66.62 18.68C66.62 19.11 66.97 19.46 67.4 19.46H122.3ZM67.4 34.95H122.3C122.73 34.95 123.08 34.6 123.08 34.17C123.08 33.74 122.73 33.39 122.3 33.39H67.4C66.97 33.39 66.62 33.74 66.62 34.17C66.62 34.6 66.97 34.95 67.4 34.95ZM136.93 68.33H110.91L111.65 70.89C113.83 78.41 113.79 85.23 113.75 92.45V94.13L115.4 94.43C119.65 95.19 122.73 98.87 122.73 103.19V121.9C122.73 126.81 118.74 130.8 113.83 130.8H106.51L106.49 132.77C106.27 150.42 102.35 161.36 83.54 161.36H73.53L73.11 162.81C72.12 166.25 68.93 168.65 65.36 168.65H57.37C52.92 168.65 49.3 165.03 49.3 160.58C49.3 156.13 52.92 152.51 57.37 152.51H65.36C68.93 152.51 72.12 154.91 73.11 158.35L73.53 159.8H83.54C99.7 159.8 103.67 151.45 104.66 138.92L104.89 135.96L102.06 136.85C101.45 137.04 100.81 137.14 100.16 137.14C96.66 137.14 93.82 134.29 93.82 130.8V94.29C93.82 91.25 95.99 88.63 98.97 88.06L100.62 87.74L100.59 86.06C100.51 81.19 100.03 75.82 97.17 69.51L96.64 68.34H89.71L62.06 93.22C61.92 93.35 61.73 93.42 61.54 93.42C61.11 93.42 60.76 93.07 60.76 92.64V68.34H53.37C51.13 68.34 49.3 66.39 49.3 64V48.07L46.56 49.16C31.6 55.12 22.95 68.2 22.18 86.01L22.11 87.73L23.8 88.06C26.77 88.64 28.92 91.26 28.92 94.28V130.79C28.92 134.29 26.07 137.13 22.58 137.13C19.65 137.13 17.12 135.15 16.42 132.3L16.04 130.78H8.9C3.99 130.78 0 126.79 0 121.88V103.17C0 98.85 3.09 95.16 7.35 94.41L9 94.12V85.49C9 73.57 13.16 61.87 20.71 52.57C27.65 44.02 37.28 37.75 47.83 34.9L49.31 34.5V4.34C49.31 1.95 51.13 0 53.38 0H136.94C139.18 0 141.01 1.95 141.01 4.34V64C141.01 66.39 139.19 68.34 136.94 68.34L136.93 68.33ZM16.22 95.86H8.89C4.85 95.86 1.56 99.15 1.56 103.19V121.9C1.56 125.94 4.85 129.23 8.89 129.23H16.22V95.86ZM17.79 94.29V130.8C17.79 133.43 19.93 135.57 22.56 135.57C25.19 135.57 27.33 133.43 27.33 130.8V94.29C27.33 91.66 25.19 89.51 22.56 89.51C19.93 89.51 17.79 91.65 17.79 94.29ZM49.3 36.09L46.72 36.87C25.43 43.33 10.56 63.33 10.56 85.51V94.29H16.04L16.42 92.77C16.84 91.05 17.98 89.57 19.55 88.72L20.56 88.17L20.59 87.02C20.83 77.68 23.3 69.17 27.73 62.41C32.49 55.15 39.3 49.95 47.96 46.98L49.31 46.52V36.1L49.3 36.09ZM71.85 160.58C71.85 157 68.94 154.08 65.35 154.08H57.36C53.78 154.08 50.86 157 50.86 160.58C50.86 164.16 53.77 167.08 57.36 167.08H65.35C68.93 167.08 71.85 164.16 71.85 160.58ZM104.93 94.29C104.93 91.66 102.79 89.51 100.16 89.51C97.53 89.51 95.38 91.65 95.38 94.29V130.8C95.38 133.43 97.52 135.57 100.15 135.57C102.74 135.57 104.88 133.46 104.92 130.86V94.28L104.93 94.29ZM106.5 95.86V129.23H113.83C117.87 129.23 121.16 125.94 121.16 121.9V103.19C121.16 99.15 117.87 95.86 113.83 95.86H106.5ZM109.64 69.71L109.19 68.34H98.48L99.52 71.06C101.36 75.84 102.13 80.46 102.17 86.99V88.16L103.21 88.73C104.76 89.59 105.9 91.06 106.32 92.77L106.7 94.29H112.18V92.3C112.23 84.78 112.27 77.68 109.65 69.71H109.64ZM136.93 66.77C138.31 66.77 139.43 65.53 139.43 64V4.34C139.43 2.81 138.31 1.57 136.93 1.57H53.37C51.99 1.57 50.87 2.81 50.87 4.34V64C50.87 65.53 51.99 66.77 53.37 66.77H61.54C61.97 66.77 62.32 67.12 62.32 67.55V90.87L88.88 66.96C89.02 66.83 89.21 66.76 89.4 66.76H136.92L136.93 66.77ZM79.52 113.31C79.95 113.31 80.3 112.96 80.3 112.53C80.3 112.1 79.95 111.74 79.52 111.74H79.29C78.86 111.74 78.51 112.09 78.51 112.53C78.51 112.97 78.86 113.31 79.29 113.31H79.52ZM43.2 113.33H43.43C43.86 113.33 44.21 112.98 44.21 112.54C44.21 112.1 43.86 111.76 43.43 111.76H43.2C42.77 111.76 42.42 112.11 42.42 112.54C42.42 112.97 42.77 113.33 43.2 113.33ZM55.23 111.76C54.8 111.76 54.45 112.11 54.45 112.54C54.45 112.97 54.8 113.33 55.23 113.33H55.46C55.89 113.33 56.24 112.98 56.24 112.54C56.24 112.1 55.89 111.76 55.46 111.76H55.23ZM68.28 112.54C68.28 112.11 67.93 111.76 67.5 111.76H67.27C66.84 111.76 66.49 112.11 66.49 112.54C66.49 112.97 66.84 113.33 67.27 113.33H67.5C67.93 113.33 68.28 112.98 68.28 112.54Z" fill="#4A4A4A"/>
</svg>