<svg xmlns="http://www.w3.org/2000/svg" width="20" height="17" viewBox="0 0 20 17" fill="none">
  <path fill-rule="evenodd" clip-rule="evenodd" d="M1.37446 7.3184C6.74136 4.91929 10.3202 3.33764 12.1108 2.57352C17.2235 0.391707 18.2859 0.0126747 18.9783 0.000131321C19.1306 -0.00259871 19.4711 0.0361386 19.6916 0.219789C20.0189 0.492202 20.0207 1.08351 19.9844 1.47487C19.7073 4.46167 18.5085 11.7098 17.8986 15.055C17.6405 16.4705 17.1324 16.9452 16.6405 16.9916C15.5714 17.0925 14.7595 16.2666 13.724 15.5703C12.1037 14.4805 11.1883 13.8021 9.61549 12.7387C7.79786 11.5097 8.97617 10.8343 10.012 9.73042C10.2831 9.44155 14.9936 5.04553 15.0848 4.64673C15.0962 4.59685 15.1068 4.41091 14.9992 4.31278C14.8915 4.21464 14.7326 4.24814 14.618 4.27485C14.4555 4.3127 11.867 6.06811 6.85254 9.54101C6.11779 10.0587 5.45229 10.3109 4.85605 10.2977C4.19868 10.2831 2.93428 9.91636 1.99429 9.60285C0.841356 9.21835 -0.0749776 9.015 0.00484746 8.36201C0.046414 8.02178 0.502927 7.67396 1.37446 7.3184Z" fill="white"/>
</svg>