<svg width="614" height="680" viewBox="0 0 614 680" fill="none" xmlns="http://www.w3.org/2000/svg">
<path fill-rule="evenodd" clip-rule="evenodd" d="M164.72 471.061C151.44 438.397 120.719 418.175 100.502 389.287C71.2125 347.437 26.8964 313.133 18.8845 262.681C9.82515 205.633 6.20866 128.543 53.9232 95.9758C105.245 60.9468 176.194 130.408 236.216 114.345C294.546 98.7338 319.688 1.62583 379.638 8.80454C436.523 15.6162 440.994 103.026 481.34 143.697C520.531 183.203 607.048 187.576 611.974 243.009C617.32 303.172 519.977 325.788 502.665 383.658C486.634 437.247 551.512 500.796 520.86 547.588C492.111 591.476 419.511 565.668 370.751 585.033C314.76 607.271 267.068 698.478 214.358 669.32C153.714 635.773 190.823 535.262 164.72 471.061Z" stroke="#D8DDF2" stroke-width="2"/>
<path fill-rule="evenodd" clip-rule="evenodd" d="M172.572 477.151C157.618 445.22 125.89 426.615 104.204 398.814C72.7869 358.536 26.7537 326.574 16.1396 276.604C4.13773 220.102 -3.46654 143.303 42.4973 108.308C91.9362 70.6683 166.387 136.362 225.497 117.211C282.94 98.6004 303.019 0.320606 363.261 4.38474C420.422 8.24106 429.414 95.3024 471.812 133.829C512.996 171.252 599.623 171.139 607.414 226.242C615.869 286.047 519.828 313.674 505.537 372.363C492.303 426.711 560.385 486.815 532.197 535.131C505.76 580.449 431.92 558.435 384.229 580.3C329.465 605.408 286.561 698.963 232.411 672.574C170.111 642.212 201.965 539.915 172.572 477.151Z" stroke="#D8DDF2" stroke-width="2"/>
<path fill-rule="evenodd" clip-rule="evenodd" d="M179.669 482.125C163.288 450.901 130.752 433.749 107.833 406.956C74.6278 368.139 27.1977 338.288 14.3371 288.849C-0.20484 232.947 -11.2706 156.569 33.0655 119.534C80.7536 79.6993 158.096 141.963 216.28 120.161C272.824 98.9746 288.443 -0.111852 348.807 1.22682C406.084 2.49703 419 89.0633 463.095 125.635C505.928 161.159 592.461 157.133 602.733 211.828C613.881 271.19 519.186 303.128 507.561 362.402C496.795 417.293 567.522 474.26 541.547 523.8C517.183 570.266 442.425 551.61 395.77 575.607C342.196 603.163 303.561 698.561 248.275 674.645C184.667 647.129 211.868 543.497 179.669 482.125Z" stroke="#D8DDF2" stroke-width="2"/>
</svg>
