<svg xmlns="http://www.w3.org/2000/svg" width="42" height="42" viewBox="0 0 42 42" fill="none">
  <rect width="42" height="42" rx="21" fill="#83AE50"/>
  <path d="M26.2629 24.1438C25.8835 24.7367 25.2826 25.461 24.5306 25.6416C23.205 25.9603 21.1687 25.6493 18.626 23.2951C16.4251 21.2576 15.8431 19.5605 15.9805 18.2144C16.0584 17.4509 16.7 16.7618 17.2405 16.3082C17.6091 15.9989 18.1733 16.1265 18.3684 16.5643L19.1834 18.3926C19.2905 18.633 19.2563 18.9122 19.0943 19.1201L18.6807 19.6508C18.5063 19.8747 18.483 20.1813 18.6249 20.4266C19.1172 21.2769 21.0447 22.9768 21.9609 23.3446C22.2254 23.4507 22.5284 23.3858 22.7282 23.1839L23.2019 22.7053C23.3873 22.5177 23.6615 22.4462 23.9162 22.5186L25.8532 23.0702C26.3172 23.2025 26.5215 23.7394 26.2629 24.1438ZM30.995 21.2364C30.8254 26.633 26.2872 30.9197 20.8445 30.8373C19.3023 30.8138 17.845 30.4435 16.5476 29.8025L11.4978 30.9893C11.2208 31.0544 10.9694 30.8122 11.0268 30.5357L12.0884 25.4238C11.397 24.0807 11.0049 22.5604 11 20.9498C10.9838 15.6619 15.1861 11.2631 20.5111 11.0116C26.3636 10.7352 31.177 15.4514 30.995 21.2364ZM28.8302 20.919C28.8302 18.8445 28.0158 16.8941 26.5368 15.4272C25.0578 13.9603 23.0916 13.1525 21.0002 13.1525C18.9273 13.1525 16.9291 13.9733 15.4634 15.4272C13.9844 16.8942 13.17 18.8446 13.17 20.9192C13.17 22.1617 13.4563 23.3479 14.021 24.4449L14.3675 25.1179L13.7158 28.256L16.8119 27.5284L17.5151 27.8759C18.6029 28.4133 19.7755 28.6859 21.0001 28.6859C23.0915 28.6859 25.0578 27.8781 26.5368 26.411C28.0025 24.9574 28.8302 22.9751 28.8302 20.919Z" fill="white"/>
</svg>