<svg xmlns="http://www.w3.org/2000/svg" width="60" height="60" viewBox="0 0 60 60" fill="none">
  <rect width="60" height="60" rx="30" fill="white"/>
  <path d="M37.8943 34.7156C37.3253 35.6051 36.4239 36.6914 35.296 36.9623C33.3074 37.4405 30.253 36.974 26.439 33.4427C23.1376 30.3864 22.2646 27.8408 22.4708 25.8216C22.5877 24.6764 23.55 23.6427 24.3608 22.9623C24.9136 22.4984 25.7599 22.6898 26.0527 23.3465L27.2751 26.0889C27.4358 26.4495 27.3845 26.8683 27.1414 27.1801L26.521 27.9762C26.2595 28.312 26.2245 28.7719 26.4374 29.14C27.1758 30.4153 30.067 32.9651 31.4414 33.5168C31.8381 33.676 32.2926 33.5788 32.5922 33.2759L33.3028 32.5579C33.581 32.2766 33.9923 32.1693 34.3743 32.2778L37.2798 33.1053C37.9758 33.3038 38.2822 34.1091 37.8943 34.7156ZM44.9925 30.3546C44.7381 38.4495 37.9307 44.8795 29.7668 44.756C27.4534 44.7207 25.2676 44.1653 23.3214 43.2038L15.7467 44.984C15.3312 45.0816 14.9541 44.7183 15.0401 44.3036L16.6326 36.6357C15.5955 34.6211 15.0074 32.3406 15.0001 29.9247C14.9757 21.9929 21.2791 15.3946 29.2666 15.0173C38.0454 14.6028 45.2655 21.6771 44.9925 30.3546ZM41.7453 29.8785C41.7453 26.7667 40.5236 23.8411 38.3051 21.6408C36.0868 19.4404 33.1375 18.2287 30.0003 18.2287C26.891 18.2287 23.8936 19.46 21.6951 21.6408C19.4766 23.8413 18.2549 26.7669 18.2549 29.8787C18.2549 31.7425 18.6845 33.5219 19.5315 35.1674L20.0512 36.1769L19.0736 40.884L23.7179 39.7926L24.7726 40.3138C26.4043 41.12 28.1632 41.5289 30.0001 41.5289C33.1373 41.5289 36.0868 40.3172 38.3051 38.1165C40.5038 35.9361 41.7453 32.9627 41.7453 29.8785Z" fill="#83AE50"/>
</svg>