<svg xmlns="http://www.w3.org/2000/svg" width="71" height="93" viewBox="0 0 71 93" fill="none">
  <path d="M69.64 4.4669C69.22 3.9869 68.65 3.69689 68.03 3.65689L13.43 0.00689524C12.15 -0.0931048 11.01 0.906895 10.92 2.2069L10.44 9.40689H2.36C1.06 9.40689 0 10.4669 0 11.7669V90.3969C0 91.6969 1.06 92.7569 2.36 92.7569H44.15C44.28 92.7569 44.41 92.7069 44.51 92.6069L51.15 85.9969L51.61 86.0969L62.45 86.8269C63.67 86.9069 64.88 85.8569 64.96 84.6269L70.21 6.1769C70.25 5.5569 70.04 4.95689 69.62 4.47689L69.64 4.4669ZM44.67 91.0069V79.2569C44.67 78.5169 45.27 77.9169 46.01 77.9169H57.71L44.67 90.9969V91.0069ZM63.95 84.6369C63.84 85.3269 63.32 85.7869 62.62 85.8069L52.06 85.1069L59.3 77.8969C59.39 77.8069 59.45 77.6669 59.45 77.5369V11.7669C59.45 10.4669 58.39 9.40689 57.09 9.40689H42.68C42.27 9.40689 42.21 9.7269 42.21 9.91689C42.21 10.1069 42.27 10.4269 42.68 10.4269H57.09C57.83 10.4269 58.43 11.0269 58.43 11.7669V76.8969H46.01C44.71 76.8969 43.65 77.9569 43.65 79.2569V91.7269H2.37C1.63 91.7269 1.03 91.1269 1.03 90.3869V11.7669C1.03 11.0269 1.63 10.4269 2.37 10.4269H35.3C35.51 10.4269 35.6 10.3569 35.65 10.2969C35.73 10.2069 35.77 10.0669 35.77 9.91689C35.77 9.7269 35.71 9.40689 35.3 9.40689H11.47L11.95 2.27689C12.07 1.50689 12.59 1.0469 13.29 1.0269L67.97 4.6769C68.74 4.7969 69.2 5.3169 69.22 6.0169L63.96 84.6269L63.95 84.6369ZM49.14 53.9269C49.14 54.2069 48.91 54.4369 48.63 54.4369H10.83C10.55 54.4369 10.32 54.2069 10.32 53.9269C10.32 53.6469 10.55 53.4169 10.83 53.4169H48.63C48.91 53.4169 49.14 53.6469 49.14 53.9269ZM10.82 34.0869H48.62C48.9 34.0869 49.13 34.3169 49.13 34.5969C49.13 34.8769 48.9 35.1069 48.62 35.1069H10.82C10.54 35.1069 10.31 34.8769 10.31 34.5969C10.31 34.3169 10.54 34.0869 10.82 34.0869ZM49.14 44.2669C49.14 44.5469 48.91 44.7769 48.63 44.7769H10.83C10.55 44.7769 10.32 44.5469 10.32 44.2669C10.32 43.9869 10.55 43.7569 10.83 43.7569H48.63C48.91 43.7569 49.14 43.9869 49.14 44.2669ZM35.51 81.2269C35.62 81.4069 35.62 81.6869 35.51 81.8669C35.46 81.9569 35.37 82.0569 35.12 82.0669C32.23 82.0669 29.35 82.0769 26.46 82.0869H26.05C24.26 82.0969 22.57 82.1069 21.47 80.8469L20.83 80.0969L20.17 80.8269C19.79 81.2469 19.37 81.5769 18.96 81.8069C18.29 82.1769 17.67 82.2469 17.09 82.0469C16.12 81.7069 15.16 80.5569 14.47 78.8969L13.52 76.6069L12.82 78.9869C12.32 80.7069 11.63 82.3969 10.97 84.0269C10.88 84.2369 10.72 84.3669 10.49 84.3969C10.24 84.4269 9.99 84.3369 9.91 84.2269C9.89 84.1969 9.83999 84.1469 9.92999 83.9369C10.7 82.0369 11.5 80.0769 12.04 78.0369C12.5 76.2769 12.75 74.3469 12.81 71.9669C12.81 71.6269 13.18 71.4769 13.4 71.4569C13.42 71.4569 13.44 71.4569 13.46 71.4569C13.75 71.4569 13.78 71.6369 13.79 71.7369C13.87 72.1669 13.94 72.6069 14.01 73.0469C14.3 74.8269 14.6 76.6669 15.35 78.3769C16.08 80.0469 17.1 80.9469 18.18 80.9269C19.17 80.8769 19.92 80.0569 20.42 78.4869C20.5 78.2369 20.77 78.0869 21.06 78.1069C21.35 78.1169 21.39 78.2969 21.4 78.3969C21.88 80.7469 23.55 81.0669 25.13 81.0669L35.12 81.0469C35.36 81.0469 35.45 81.1469 35.5 81.2369L35.51 81.2269ZM41.97 24.4269C42.25 24.4269 42.48 24.6569 42.48 24.9369C42.48 25.2169 42.25 25.4469 41.97 25.4469H17.49C17.21 25.4469 16.98 25.2169 16.98 24.9369C16.98 24.6569 17.21 24.4269 17.49 24.4269H41.97Z" fill="#4C4A4B"/>
</svg>