<svg xmlns="http://www.w3.org/2000/svg" width="91" height="96" viewBox="0 0 91 96" fill="none">
  <path d="M16.3995 15.0647C24.4653 7.95536 34.7139 4.07268 45.5614 4.07268V1.9412C45.5614 1.42211 45.9835 1 46.5026 1C46.746 1 46.9798 1.09507 47.1567 1.2643L52.3856 6.31824C52.8438 6.75937 52.8571 7.48571 52.416 7.94395C52.4065 7.95535 52.3951 7.96486 52.3856 7.97437L47.1567 13.0283C46.784 13.3896 46.187 13.3801 45.8257 13.0055C45.6565 12.8306 45.5614 12.5948 45.5614 12.3514V10.2199C26.0301 10.2199 9.89286 25.0205 7.76899 43.9947L1.64075 43.4832C2.57244 34.7386 6.06152 26.5549 11.7467 19.8163" stroke="#4A4A4A" stroke-linecap="round" stroke-linejoin="round"/>
  <path d="M79.1308 66.1042C81.3897 61.8812 82.8233 57.2646 83.3538 52.5054L89.4821 53.0169C88.4173 63.0145 84.0098 72.2781 76.7997 79.4883C68.4544 87.8317 57.3616 92.4274 45.5614 92.4274V94.5588C45.5614 95.0779 45.1393 95.5 44.6202 95.5C44.3768 95.5 44.143 95.405 43.9661 95.2357L38.7373 90.1818C38.279 89.7426 38.2657 89.0143 38.7068 88.5561C38.7163 88.5447 38.7277 88.5352 38.7373 88.5257L43.9661 83.4717C44.3388 83.1105 44.9359 83.12 45.2971 83.4926C45.4663 83.6676 45.5614 83.9033 45.5614 84.1467V86.2782C57.7019 86.2782 68.5323 80.5588 75.4972 71.6735" stroke="#4A4A4A" stroke-linecap="round" stroke-linejoin="round"/>
  <path d="M69.1693 40.6958H74.3716V55.8044H53.1157V77.0602H38.0071V55.8044H16.7513V40.6958H38.0071V19.4399H53.1157V40.6958H62.5144" stroke="#4A4A4A" stroke-linecap="round" stroke-linejoin="round"/>
  <path d="M90.1209 19.054H83.9736V12.9067H77.8264V19.054H71.6791V25.2012H77.8264V31.3485H83.9736V25.2012H90.119V19.054H90.1209Z" stroke="#4A4A4A" stroke-linecap="round" stroke-linejoin="round"/>
  <path d="M19.4399 71.2991H13.2926V65.1519H7.14535V71.2991H1V77.4464H7.14726V83.5936H13.2945V77.4464H19.4399V71.2991Z" stroke="#4A4A4A" stroke-linecap="round" stroke-linejoin="round"/>
  <path d="M25.281 85.896V93.5796" stroke="#4A4A4A" stroke-linecap="round" stroke-linejoin="round"/>
  <path d="M29.1218 89.7368H21.4382" stroke="#4A4A4A" stroke-linecap="round" stroke-linejoin="round"/>
  <path d="M65.8419 10.6042V2.92065" stroke="#4A4A4A" stroke-linecap="round" stroke-linejoin="round"/>
  <path d="M61.9991 6.76123H69.6827" stroke="#4A4A4A" stroke-linecap="round" stroke-linejoin="round"/>
</svg>