<svg xmlns="http://www.w3.org/2000/svg" width="81" height="93" viewBox="0 0 81 93" fill="none">
  <path d="M40.41 76.83C42.94 76.83 45 74.77 45 72.24V64.02L45.26 63.77C46.68 62.43 47.46 60.61 47.46 58.65C47.46 54.76 44.3 51.6 40.41 51.6C36.52 51.6 33.36 54.76 33.36 58.65C33.36 60.61 34.14 62.43 35.56 63.77L35.82 64.02V72.24C35.82 74.77 37.88 76.83 40.41 76.83ZM34.38 58.65C34.38 55.32 37.09 52.61 40.42 52.61C43.75 52.61 46.46 55.32 46.46 58.65C46.46 60.49 45.63 62.21 44.19 63.37C44.07 63.47 44 63.61 44 63.77V72.24C44 74.21 42.4 75.81 40.42 75.81C38.44 75.81 36.85 74.21 36.85 72.24V63.77C36.85 63.61 36.78 63.47 36.66 63.37C35.22 62.22 34.39 60.5 34.39 58.65H34.38ZM61.08 73.49C60.95 73.74 61.05 74.05 61.3 74.17C61.49 74.27 61.73 74.23 61.88 74.08C62.35 73.62 62.82 73.16 63.27 72.69C66.93 68.9 69.84 64.86 71.9 60.69C74.26 55.93 75.45 51.11 75.45 46.36V16.21C75.45 15.96 75.27 15.75 75.03 15.71C66.75 14.25 58.57 10.79 50.7 5.44C50.62 5.38 50.52 5.35 50.41 5.35H30.4C30.3 5.35 30.2 5.38 30.11 5.44C22.24 10.8 14.05 14.25 5.78 15.71C5.54 15.75 5.36 15.96 5.36 16.21V46.36C5.36 51.11 6.55 55.93 8.91 60.69C10.98 64.87 13.88 68.91 17.55 72.69C18.01 73.16 18.47 73.62 18.94 74.08C19.04 74.18 19.18 74.22 19.3 74.22C19.44 74.22 19.56 74.16 19.66 74.06C19.81 73.9 19.85 73.67 19.75 73.48C18.11 70.23 17.27 66.74 17.27 63.09V44.82H63.56V63.09C63.56 66.74 62.73 70.23 61.08 73.48V73.49ZM49.42 43.82H31.4V33.9C31.4 29.43 35.04 25.79 39.51 25.79H41.32C45.79 25.79 49.43 29.43 49.43 33.9V43.82H49.42ZM58.36 43.82H50.44V33.9C50.44 28.87 46.35 24.78 41.32 24.78H39.51C34.48 24.78 30.39 28.87 30.39 33.9V43.82H22.47V34.8C22.47 24.9 30.52 16.85 40.42 16.85C50.32 16.85 58.37 24.9 58.37 34.8V43.82H58.36ZM64.07 43.82H59.39V34.8C59.39 24.34 50.88 15.83 40.42 15.83C29.96 15.83 21.45 24.34 21.45 34.8V43.82H16.77C16.49 43.82 16.26 44.05 16.26 44.33V63.11C16.26 64.74 16.42 66.36 16.74 67.93L17.41 71.24L15.28 68.62C9.46001 61.47 6.39 53.78 6.39 46.38V16.66L7.06 16.53C14.99 14.97 22.83 11.6 30.36 6.53L30.57 6.39H50.27L50.48 6.53C58.02 11.6 65.86 14.97 73.78 16.53L74.45 16.66V46.38C74.45 53.78 71.37 61.48 65.56 68.62L63.43 71.24L64.1 67.93C64.42 66.36 64.58 64.74 64.58 63.11V44.33C64.58 44.05 64.35 43.82 64.07 43.82ZM77.13 10.63C68.74 9.37 60.42 5.82 52.4 0.09C52.32 0.03 52.21 0 52.1 0H28.72C28.61 0 28.51 0.03 28.42 0.09C20.4 5.82 12.08 9.36 3.69 10.63C1.55 10.95 0 12.76 0 14.92V46.37C0 51.79 1.31 57.26 3.88 62.62C6.21 67.46 9.50999 72.1 13.69 76.43C21.27 84.27 31.21 90.4 40.27 92.83C40.35 92.85 40.45 92.85 40.54 92.83C49.6 90.4 59.53 84.27 67.12 76.43C71.3 72.1 74.6 67.46 76.93 62.62C79.51 57.26 80.81 51.79 80.81 46.37V14.92C80.81 12.76 79.26 10.96 77.12 10.63H77.13ZM79.8 46.37C79.8 68.55 56.64 87.28 40.64 91.74L40.42 91.8L40.2 91.74C24.19 87.27 1.03999 68.55 1.03999 46.37V14.92C1.03999 13.27 2.23 11.89 3.86 11.64C12.28 10.37 20.64 6.85 28.69 1.17L28.9 1.02H51.95L52.16 1.17C60.21 6.85 68.56 10.37 76.99 11.64C78.63 11.89 79.81 13.27 79.81 14.92V46.37H79.8Z" fill="#4C4A4B"/>
</svg>