<svg xmlns="http://www.w3.org/2000/svg" width="93" height="93" viewBox="0 0 93 93" fill="none">
  <path d="M54.55 79.25C54.55 79.53 54.33 79.75 54.05 79.75H38.3C38.02 79.75 37.8 79.53 37.8 79.25C37.8 78.97 38.02 78.75 38.3 78.75H54.05C54.33 78.75 54.55 78.97 54.55 79.25ZM86.05 8.38V55.63C86.05 56.77 85.12 57.7 83.98 57.7H8.38C7.24 57.7 6.3 56.77 6.3 55.63V8.38C6.3 7.24 7.23 6.3 8.38 6.3H83.98C85.12 6.3 86.05 7.23 86.05 8.38ZM85.05 7.3H7.3V56.7H85.05V7.3ZM15.89 19.13C15.17 16.34 16.85 13.49 19.64 12.76C20.99 12.41 22.4 12.61 23.6 13.32C24.8 14.03 25.66 15.16 26.01 16.52L26.22 17.33H43.03C45.04 17.33 46.68 18.97 46.68 20.98V23.63H49.33C50.87 23.63 52.24 24.61 52.76 26.06L53.01 26.78H67.72L67.93 25.97C68.52 23.67 70.59 22.06 72.97 22.05C75.34 22.05 77.42 23.65 78.02 25.95C78.37 27.3 78.18 28.7 77.47 29.9C76.77 31.1 75.64 31.96 74.29 32.31C71.51 33.04 68.65 31.36 67.93 28.58L67.72 27.78H53.02L52.77 28.5C52.26 29.95 50.88 30.93 49.35 30.93H46.7V36.23H58.8C60.81 36.23 62.45 37.87 62.45 39.88V44.1H65.1C67.11 44.1 68.75 45.74 68.75 47.75C68.75 49.76 67.11 51.4 65.1 51.4H58.8C56.79 51.4 55.15 49.76 55.15 47.75C55.15 45.74 56.79 44.1 58.8 44.1H61.45V39.88C61.45 38.42 60.26 37.23 58.8 37.23H33.6C32.14 37.23 30.95 38.42 30.95 39.88V44.1H33.6C35.61 44.1 37.25 45.74 37.25 47.75C37.25 49.76 35.61 51.4 33.6 51.4H27.3C25.29 51.4 23.65 49.76 23.65 47.75C23.65 45.74 25.29 44.1 27.3 44.1H29.95V39.88C29.95 37.87 31.59 36.23 33.6 36.23H45.7V30.93H43.05C41.04 30.93 39.4 29.29 39.4 27.28C39.4 25.27 41.04 23.63 43.05 23.63H45.7V20.98C45.7 19.52 44.51 18.33 43.05 18.33H26.24L26.03 19.14C25.55 20.98 24.12 22.42 22.28 22.89C20.93 23.24 19.52 23.04 18.32 22.33C17.12 21.62 16.26 20.49 15.91 19.13H15.89ZM27.27 45.1C25.81 45.1 24.62 46.29 24.62 47.75C24.62 49.21 25.81 50.4 27.27 50.4H33.57C35.03 50.4 36.22 49.21 36.22 47.75C36.22 46.29 35.03 45.1 33.57 45.1H27.27ZM58.77 45.1C57.31 45.1 56.12 46.29 56.12 47.75C56.12 49.21 57.31 50.4 58.77 50.4H65.07C66.53 50.4 67.72 49.21 67.72 47.75C67.72 46.29 66.53 45.1 65.07 45.1H58.77ZM68.72 27.28C68.72 29.61 70.62 31.51 72.95 31.51C75.28 31.51 77.17 29.61 77.17 27.28C77.17 24.95 75.27 23.06 72.95 23.06C70.63 23.06 68.72 24.96 68.72 27.28ZM43.02 24.63C41.56 24.63 40.37 25.82 40.37 27.28C40.37 28.74 41.56 29.93 43.02 29.93H49.32C50.78 29.93 51.97 28.74 51.97 27.28C51.97 25.82 50.78 24.63 49.32 24.63H43.02ZM16.75 17.83C16.75 20.16 18.65 22.05 20.98 22.05C23.31 22.05 25.21 20.15 25.21 17.83C25.21 15.51 23.31 13.6 20.98 13.6C18.65 13.6 16.75 15.5 16.75 17.83ZM92.35 3.69V69.76C92.35 71.8 90.7 73.45 88.66 73.45H64.04C64.04 73.45 64 73.47 64 73.49V77.68C64 83.51 68.82 85.06 71.38 85.06H72.94C73.71 85.06 74.44 85.49 74.82 86.2C75.07 86.67 75.04 87.49 74.85 87.99C74.5 88.88 73.97 89.7 73.31 90.37C72.02 91.66 70.32 92.37 68.5 92.37H23.86C20.94 92.37 18.36 90.51 17.43 87.75C17.23 87.15 17.33 86.48 17.72 85.96C18.11 85.41 18.76 85.08 19.43 85.08H20.93C21.12 85.08 21.31 85.08 21.5 85.08C23.41 85 25.17 84.19 26.46 82.79C27.75 81.39 28.43 79.57 28.35 77.71V73.52C28.35 73.52 28.33 73.48 28.31 73.48H3.69C1.65 73.48 0 71.83 0 69.79V3.69C0 1.65 1.65 0 3.69 0H88.66C90.7 0 92.35 1.65 92.35 3.69ZM18.54 86.05C18.54 86.05 18.11 86.8 18.12 86.82L18.4 87.45C19.21 89.78 21.41 91.34 23.87 91.34H68.48C70.03 91.34 71.49 90.73 72.59 89.63C73.18 89.02 73.65 88.28 73.94 87.48L73.78 86.04H18.54V86.05ZM63 77.68V73.49C63 73.49 62.98 73.45 62.96 73.45H29.39C29.39 73.45 29.35 73.47 29.35 73.49V77.72C29.44 79.75 28.76 81.72 27.45 83.28L25.2 85.04H67.15L64.91 83.28C63.6 81.72 62.93 79.75 63.01 77.68H63ZM91.35 64.04C91.35 64.04 91.33 64 91.31 64H1.04C1.04 64 1 64.02 1 64.04V69.76C1 71.25 2.2 72.45 3.69 72.45H88.66C90.15 72.45 91.35 71.25 91.35 69.76V64.04ZM91.35 3.69C91.35 2.2 90.15 1 88.66 1H3.69C2.2 1 1 2.2 1 3.69V62.96C1 62.96 1.02 63 1.04 63H91.31C91.31 63 91.35 62.98 91.35 62.96V3.69Z" fill="#4C4A4B"/>
</svg>