<svg xmlns="http://www.w3.org/2000/svg" width="116" height="41" viewBox="0 0 116 41" fill="none">
  <path d="M36.39 35.05C36.01 35.05 35.37 34.89 35.37 34.29V6.06C35.37 5.46 36.01 5.3 36.39 5.3C36.77 5.3 37.41 5.46 37.41 6.06V34.29C37.41 34.89 36.77 35.05 36.39 35.05ZM43.31 25.51V14.84C43.31 14.61 43.22 14.43 43.03 14.3C42.84 14.16 42.57 14.08 42.28 14.08C41.9 14.08 41.26 14.24 41.26 14.84V25.51C41.26 26.11 41.9 26.27 42.28 26.27C42.66 26.27 43.3 26.11 43.3 25.51H43.31ZM49.21 29.26V11.1C49.21 10.5 48.57 10.34 48.19 10.34C47.81 10.34 47.17 10.5 47.17 11.1V29.26C47.17 29.86 47.81 30.02 48.19 30.02C48.57 30.02 49.21 29.86 49.21 29.26ZM30.5 0C30.12 0 29.48 0.16 29.48 0.76V39.6C29.48 40.2 30.12 40.36 30.5 40.36C30.88 40.36 31.52 40.2 31.52 39.6V0.76C31.52 0.16 30.88 0 30.5 0ZM54.08 14.08C53.7 14.08 53.06 14.24 53.06 14.84V25.52C53.06 26.12 53.7 26.28 54.08 26.28C54.46 26.28 55.1 26.12 55.1 25.52V14.84C55.1 14.24 54.46 14.08 54.08 14.08ZM1.02 26.27C1.4 26.27 2.04 26.11 2.04 25.51V14.83C2.04 14.23 1.4 14.07 1.02 14.07C0.64 14.07 0 14.23 0 14.83V25.51C0 26.11 0.64 26.27 1.02 26.27ZM7.94 29.26V11.1C7.94 10.87 7.85 10.69 7.66 10.56C7.47 10.42 7.2 10.34 6.91 10.34C6.53 10.34 5.89 10.5 5.89 11.1V29.26C5.89 29.86 6.53 30.02 6.91 30.02C7.29 30.02 7.93 29.86 7.93 29.26H7.94ZM13.84 34.3V6.06C13.84 5.46 13.2 5.3 12.82 5.3C12.44 5.3 11.8 5.46 11.8 6.06V34.3C11.8 34.9 12.44 35.06 12.82 35.06C13.2 35.06 13.84 34.9 13.84 34.3ZM18.71 15.23C18.33 15.23 17.69 15.39 17.69 15.99V24.38C17.69 24.98 18.33 25.14 18.71 25.14C19.09 25.14 19.73 24.98 19.73 24.38V15.99C19.73 15.39 19.09 15.23 18.71 15.23ZM25.63 29.58V10.78C25.63 10.55 25.54 10.37 25.35 10.24C25.16 10.1 24.89 10.02 24.6 10.02C24.22 10.02 23.58 10.18 23.58 10.78V29.58C23.58 30.18 24.22 30.34 24.6 30.34C24.98 30.34 25.62 30.18 25.62 29.58H25.63Z" fill="#4A4A4A"/>
  <path d="M96.39 35.05C96.01 35.05 95.37 34.89 95.37 34.29V6.06C95.37 5.46 96.01 5.3 96.39 5.3C96.77 5.3 97.41 5.46 97.41 6.06V34.29C97.41 34.89 96.77 35.05 96.39 35.05ZM103.31 25.51V14.84C103.31 14.61 103.22 14.43 103.03 14.3C102.84 14.16 102.57 14.08 102.28 14.08C101.9 14.08 101.26 14.24 101.26 14.84V25.51C101.26 26.11 101.9 26.27 102.28 26.27C102.66 26.27 103.3 26.11 103.3 25.51H103.31ZM109.21 29.26V11.1C109.21 10.5 108.57 10.34 108.19 10.34C107.81 10.34 107.17 10.5 107.17 11.1V29.26C107.17 29.86 107.81 30.02 108.19 30.02C108.57 30.02 109.21 29.86 109.21 29.26ZM90.5 0C90.12 0 89.48 0.16 89.48 0.76V39.6C89.48 40.2 90.12 40.36 90.5 40.36C90.88 40.36 91.52 40.2 91.52 39.6V0.76C91.52 0.16 90.88 0 90.5 0ZM114.08 14.08C113.7 14.08 113.06 14.24 113.06 14.84V25.52C113.06 26.12 113.7 26.28 114.08 26.28C114.46 26.28 115.1 26.12 115.1 25.52V14.84C115.1 14.24 114.46 14.08 114.08 14.08ZM61.02 26.27C61.4 26.27 62.04 26.11 62.04 25.51V14.83C62.04 14.23 61.4 14.07 61.02 14.07C60.64 14.07 60 14.23 60 14.83V25.51C60 26.11 60.64 26.27 61.02 26.27ZM67.94 29.26V11.1C67.94 10.87 67.85 10.69 67.66 10.56C67.47 10.42 67.2 10.34 66.91 10.34C66.53 10.34 65.89 10.5 65.89 11.1V29.26C65.89 29.86 66.53 30.02 66.91 30.02C67.29 30.02 67.93 29.86 67.93 29.26H67.94ZM73.84 34.3V6.06C73.84 5.46 73.2 5.3 72.82 5.3C72.44 5.3 71.8 5.46 71.8 6.06V34.3C71.8 34.9 72.44 35.06 72.82 35.06C73.2 35.06 73.84 34.9 73.84 34.3ZM78.71 15.23C78.33 15.23 77.69 15.39 77.69 15.99V24.38C77.69 24.98 78.33 25.14 78.71 25.14C79.09 25.14 79.73 24.98 79.73 24.38V15.99C79.73 15.39 79.09 15.23 78.71 15.23ZM85.63 29.58V10.78C85.63 10.55 85.54 10.37 85.35 10.24C85.16 10.1 84.89 10.02 84.6 10.02C84.22 10.02 83.58 10.18 83.58 10.78V29.58C83.58 30.18 84.22 30.34 84.6 30.34C84.98 30.34 85.62 30.18 85.62 29.58H85.63Z" fill="#4A4A4A"/>
</svg>