<svg xmlns="http://www.w3.org/2000/svg" width="20" height="14" viewBox="0 0 20 14" fill="none">
  <path d="M19.5813 2.19146C19.4733 1.76169 19.2534 1.36792 18.9438 1.04992C18.6341 0.731913 18.2457 0.500944 17.8178 0.380336C16.2542 8.09636e-08 10 0 10 0C10 0 3.74578 2.69879e-08 2.18222 0.416559C1.75429 0.537166 1.36588 0.768135 1.05623 1.08614C0.746586 1.40414 0.526664 1.79791 0.41868 2.22768C0.132526 3.80839 -0.00744728 5.41192 0.00051965 7.01811C-0.00968046 8.63639 0.130302 10.2521 0.41868 11.8448C0.537727 12.2612 0.762577 12.64 1.0715 12.9445C1.38043 13.2491 1.76299 13.4692 2.18222 13.5834C3.74578 14 10 14 10 14C10 14 16.2542 14 17.8178 13.5834C18.2457 13.4628 18.6341 13.2319 18.9438 12.9139C19.2534 12.5959 19.4733 12.2021 19.5813 11.7723C19.8653 10.2035 20.0052 8.61221 19.9995 7.01811C20.0097 5.39983 19.8697 3.78407 19.5813 2.19146Z" fill="white"/>
  <path d="M7.95471 9.97902L13.1817 7.01783L7.95471 4.05664V9.97902Z" fill="#C8C8C8"/>
</svg>