<svg xmlns="http://www.w3.org/2000/svg" width="40" height="9" viewBox="0 0 40 9" fill="none">
  <path d="M0.351245 0.297956H8.68077C8.87475 0.297956 9.03201 0.44421 9.03201 0.624623V2.148C9.03201 2.35092 8.93733 2.54304 8.77251 2.676L4.11458 6.3H8.68077C8.87475 6.3 9.03201 6.44359 9.03201 6.624V8.37288C9.03201 8.55329 8.87475 8.69955 8.68077 8.69955H0.351245C0.157258 8.69955 0 8.55329 0 8.37288V6.852C0 6.64908 0.0946779 6.45696 0.259502 6.324L4.91743 2.7H0.351245C0.157258 2.7 0 2.55041 0 2.37V0.624623C0 0.44421 0.157258 0.297956 0.351245 0.297956ZM14.8383 0C15.8014 0 16.6601 0.201426 17.3769 0.569519C18.0937 0.937612 18.6687 1.47237 19.0645 2.13904C19.4603 2.8057 19.6769 3.60428 19.6769 4.5C19.6769 5.39572 19.4603 6.1943 19.0645 6.86096C18.6687 7.52763 18.0937 8.06239 17.3769 8.43048C16.6601 8.79857 15.8014 9 14.8383 9C13.8752 9 13.0165 8.79857 12.2997 8.43048C11.5829 8.06239 11.0079 7.52763 10.6121 6.86096C10.2163 6.1943 9.99973 5.39572 9.99973 4.5C9.99973 3.60428 10.2163 2.8057 10.6121 2.13904C11.0079 1.47237 11.5829 0.937612 12.2997 0.569519C13.0165 0.201426 13.8752 0 14.8383 0ZM14.8383 2.4C14.3776 2.4 13.9731 2.49051 13.6386 2.6588C13.3041 2.82708 13.0395 3.07315 12.8586 3.38426C12.6776 3.69537 12.5803 4.07153 12.5803 4.5C12.5803 4.92847 12.6776 5.30463 12.8586 5.61574C13.0395 5.92685 13.3041 6.17292 13.6386 6.3412C13.9731 6.50949 14.3776 6.6 14.8383 6.6C15.299 6.6 15.7035 6.50949 16.038 6.3412C16.3725 6.17292 16.6371 5.92685 16.818 5.61574C16.999 5.30463 17.0963 4.92847 17.0963 4.5C17.0963 4.07153 16.999 3.69537 16.818 3.38426C16.6371 3.07315 16.3725 2.82708 16.038 2.6588C15.7035 2.49051 15.299 2.4 14.8383 2.4ZM25.1606 0C26.1237 0 26.9824 0.201426 27.6992 0.569519C28.416 0.937612 28.991 1.47237 29.3868 2.13904C29.7826 2.8057 29.9992 3.60428 29.9992 4.5C29.9992 5.39572 29.7826 6.1943 29.3868 6.86096C28.991 7.52763 28.416 8.06239 27.6992 8.43048C26.9824 8.79857 26.1237 9 25.1606 9C24.1975 9 23.3388 8.79857 22.622 8.43048C21.9052 8.06239 21.3302 7.52763 20.9344 6.86096C20.5386 6.1943 20.322 5.39572 20.322 4.5C20.322 3.60428 20.5386 2.8057 20.9344 2.13904C21.3302 1.47237 21.9052 0.937612 22.622 0.569519C23.3388 0.201426 24.1975 0 25.1606 0ZM25.1606 2.4C24.6999 2.4 24.2954 2.49051 23.9609 2.6588C23.6264 2.82708 23.3618 3.07315 23.1809 3.38426C22.9999 3.69537 22.9026 4.07153 22.9026 4.5C22.9026 4.92847 22.9999 5.30463 23.1809 5.61574C23.3618 5.92685 23.6264 6.17292 23.9609 6.3412C24.2954 6.50949 24.6999 6.6 25.1606 6.6C25.6213 6.6 26.0258 6.50949 26.3603 6.3412C26.6948 6.17292 26.9594 5.92685 27.1403 5.61574C27.3213 5.30463 27.4186 4.92847 27.4186 4.5C27.4186 4.07153 27.3213 3.69537 27.1403 3.38426C26.9594 3.07315 26.6948 2.82708 26.3603 2.6588C26.0258 2.49051 25.6213 2.4 25.1606 2.4ZM40 0.625663V8.37275C40 8.55317 39.8427 8.69943 39.6487 8.69943H38.0119C37.7937 8.69943 37.5871 8.61139 37.4441 8.45812L33.5475 4.12665V8.37275C33.5475 8.55317 33.3866 8.69943 33.1926 8.69943H31.3171C31.1231 8.69943 30.9658 8.55317 30.9658 8.37275V0.625663C30.9658 0.44524 31.1231 0.298978 31.3171 0.298978H32.9539C33.1722 0.298978 33.3787 0.387054 33.5217 0.54038L37.4183 4.87335V0.625663C37.4183 0.44524 37.5727 0.298978 37.7667 0.298978H39.6487C39.8427 0.298978 40 0.44524 40 0.625663Z" fill="white"/>
</svg>